<?xml version="1.0" encoding="UTF-8" standalone="no"?>
<!-- Created with Inkscape (http://www.inkscape.org/) -->

<svg
   xmlns:dc="http://purl.org/dc/elements/1.1/"
   xmlns:cc="http://creativecommons.org/ns#"
   xmlns:rdf="http://www.w3.org/1999/02/22-rdf-syntax-ns#"
   xmlns:svg="http://www.w3.org/2000/svg"
   xmlns="http://www.w3.org/2000/svg"
   xmlns:sodipodi="http://sodipodi.sourceforge.net/DTD/sodipodi-0.dtd"
   xmlns:inkscape="http://www.inkscape.org/namespaces/inkscape"
   width="300"
   height="300"
   viewBox="0 0 79.375005 79.374998"
   version="1.1"
   id="svg8"
   inkscape:version="0.92.1 r15371"
   sodipodi:docname="filament.svg"
   inkscape:export-filename="/home/paulliu/bitmap.png"
   inkscape:export-xdpi="120"
   inkscape:export-ydpi="120">
  <defs
     id="defs2" />
  <sodipodi:namedview
     id="base"
     pagecolor="#ffffff"
     bordercolor="#666666"
     borderopacity="1.0"
     inkscape:pageopacity="0.0"
     inkscape:pageshadow="2"
     inkscape:zoom="1"
     inkscape:cx="-84.43674"
     inkscape:cy="240"
     inkscape:document-units="mm"
     inkscape:current-layer="layer1"
     showgrid="false"
     units="px"
     inkscape:window-width="1280"
     inkscape:window-height="965"
     inkscape:window-x="0"
     inkscape:window-y="0"
     inkscape:window-maximized="1" />
  <metadata
     id="metadata5">
    <rdf:RDF>
      <cc:Work
         rdf:about="">
        <dc:format>image/svg+xml</dc:format>
        <dc:type
           rdf:resource="http://purl.org/dc/dcmitype/StillImage" />
        <dc:title />
      </cc:Work>
    </rdf:RDF>
  </metadata>
  <g
     inkscape:label="圖層 1"
     inkscape:groupmode="layer"
     id="layer1"
     transform="translate(0,-217.625)">
    <path
       style="opacity:1;fill:#000000;fill-opacity:1;fill-rule:evenodd;stroke:none;stroke-width:19.14330673;stroke-linecap:round;stroke-linejoin:miter;stroke-miterlimit:4;stroke-dasharray:none;stroke-dashoffset:0;stroke-opacity:1"
       d="M 148.5 6 A 144.5 144.5 0 0 0 4 150.5 A 144.5 144.5 0 0 0 148.5 295 A 144.5 144.5 0 0 0 293 150.5 A 144.5 144.5 0 0 0 148.5 6 z M 143.50586 20.523438 C 162.55636 20.254486 182.93859 24.978047 205 36 L 187 95 C 164.65197 77.957506 139.33576 74.76645 109 95 L 90 35 C 106.73658 26.053839 124.45536 20.792386 143.50586 20.523438 z M 147 103 A 47.999997 47.999997 0 0 1 195 151 A 47.999997 47.999997 0 0 1 147 199 A 47.999997 47.999997 0 0 1 99 151 A 47.999997 47.999997 0 0 1 147 103 z M 211.66211 134.86328 L 274.14453 142.41602 C 276.56928 180.29357 263.94778 215.6443 225.61133 246.67773 L 179.36133 205.86133 C 204.12832 192.57686 217.51712 170.85459 211.66211 134.86328 z M 81.671875 151.58203 C 81.813456 179.68652 94.737615 201.68649 129.28125 213.36523 L 93.353516 265.03906 C 58.749337 249.44605 33.422194 221.74302 23.951172 173.33789 L 81.671875 151.58203 z "
       transform="matrix(0.26458333,0,0,0.26458333,0,217.625)"
       id="path10" />
  </g>
</svg>
