<?xml version="1.0" encoding="UTF-8" standalone="no"?>
<!-- Created with Inkscape (http://www.inkscape.org/) -->

<svg
   xmlns:dc="http://purl.org/dc/elements/1.1/"
   xmlns:cc="http://creativecommons.org/ns#"
   xmlns:rdf="http://www.w3.org/1999/02/22-rdf-syntax-ns#"
   xmlns:svg="http://www.w3.org/2000/svg"
   xmlns="http://www.w3.org/2000/svg"
   xmlns:sodipodi="http://sodipodi.sourceforge.net/DTD/sodipodi-0.dtd"
   xmlns:inkscape="http://www.inkscape.org/namespaces/inkscape"
   width="300"
   height="600"
   viewBox="0 0 79.374998 158.75"
   version="1.1"
   id="svg8"
   inkscape:version="0.92.1 r15371"
   sodipodi:docname="loadfilament.svg">
  <defs
     id="defs2">
    <marker
       inkscape:stockid="Arrow2Lend"
       orient="auto"
       refY="0.0"
       refX="0.0"
       id="Arrow2Lend"
       style="overflow:visible;"
       inkscape:isstock="true">
      <path
         id="path915"
         style="fill-rule:evenodd;stroke-width:0.625;stroke-linejoin:round;stroke:#000000;stroke-opacity:1;fill:#000000;fill-opacity:1"
         d="M 8.7185878,4.0337352 L -2.2072895,0.016013256 L 8.7185884,-4.0017078 C 6.9730900,-1.6296469 6.9831476,1.6157441 8.7185878,4.0337352 z "
         transform="scale(1.1) rotate(180) translate(1,0)" />
    </marker>
  </defs>
  <sodipodi:namedview
     id="base"
     pagecolor="#ffffff"
     bordercolor="#666666"
     borderopacity="1.0"
     inkscape:pageopacity="0.0"
     inkscape:pageshadow="2"
     inkscape:zoom="2"
     inkscape:cx="140.54432"
     inkscape:cy="280"
     inkscape:document-units="mm"
     inkscape:current-layer="layer1"
     showgrid="false"
     units="px"
     inkscape:window-width="593"
     inkscape:window-height="481"
     inkscape:window-x="156"
     inkscape:window-y="90"
     inkscape:window-maximized="0" />
  <metadata
     id="metadata5">
    <rdf:RDF>
      <cc:Work
         rdf:about="">
        <dc:format>image/svg+xml</dc:format>
        <dc:type
           rdf:resource="http://purl.org/dc/dcmitype/StillImage" />
        <dc:title></dc:title>
      </cc:Work>
    </rdf:RDF>
  </metadata>
  <g
     inkscape:label="圖層 1"
     inkscape:groupmode="layer"
     id="layer1"
     transform="translate(0,-138.24998)">
    <g
       id="g74"
       transform="matrix(0.81217685,0,0,0.81217685,1.5495391,28.172879)">
      <rect
         y="250.13097"
         x="9.373807"
         height="14.022917"
         width="61.383335"
         id="rect10"
         style="opacity:1;fill:#000000;fill-opacity:1;fill-rule:evenodd;stroke:#000000;stroke-width:5.06500006;stroke-linecap:round;stroke-linejoin:miter;stroke-miterlimit:4;stroke-dasharray:none;stroke-dashoffset:0;stroke-opacity:1" />
      <path
         inkscape:connector-curvature="0"
         id="path821"
         d="m 31.069641,261.77262 17.727083,-0.52917 -8.202083,22.225 z"
         style="fill:#000000;fill-opacity:1;fill-rule:evenodd;stroke:#000000;stroke-width:0.26458332px;stroke-linecap:butt;stroke-linejoin:miter;stroke-opacity:1" />
    </g>
    <path
       inkscape:connector-curvature="0"
       style="opacity:1;fill:#000000;fill-opacity:1;fill-rule:evenodd;stroke:none;stroke-width:3.56277561;stroke-linecap:round;stroke-linejoin:miter;stroke-miterlimit:4;stroke-dasharray:none;stroke-dashoffset:0;stroke-opacity:1"
       d="m 49.892857,146.13079 a 26.893006,26.893006 0 0 0 -26.893006,26.893 26.893006,26.893006 0 0 0 26.893006,26.89301 26.893006,26.893006 0 0 0 26.893007,-26.89301 26.893006,26.893006 0 0 0 -26.893007,-26.893 z m -0.929463,2.70297 c 3.545503,-0.0501 7.338859,0.82905 11.444724,2.88035 l -3.349994,10.98054 c -4.159211,-3.17179 -8.870831,-3.76568 -14.516642,0 L 39.005377,151.528 c 3.114858,-1.66498 6.412514,-2.64419 9.958017,-2.69424 z m 0.650297,15.34977 a 8.9333162,8.9333162 0 0 1 8.933315,8.93332 8.9333162,8.9333162 0 0 1 -8.933315,8.93332 8.9333162,8.9333162 0 0 1 -8.933317,-8.93332 8.9333162,8.9333162 0 0 1 8.933317,-8.93332 z m 12.034315,5.93011 11.628654,1.40564 c 0.451273,7.04942 -1.897725,13.62857 -9.032554,19.40423 l -8.607624,-7.59637 c 4.609402,-2.47239 7.101206,-6.51513 6.011524,-13.2135 z m -24.192582,3.11153 c 0.02635,5.23055 2.431675,9.32498 8.860617,11.49852 l -6.686538,9.61706 c -6.440211,-2.90203 -11.153865,-8.05786 -12.916524,-17.06657 z"
       id="path10" />
    <path
       style="fill:none;fill-rule:evenodd;stroke:#000000;stroke-width:3.36500001;stroke-linecap:butt;stroke-linejoin:miter;stroke-miterlimit:4;stroke-dasharray:none;stroke-opacity:1"
       d="m 33.954152,235.4066 0.19398,-43.13144"
       id="path76"
       inkscape:connector-curvature="0"
       sodipodi:nodetypes="cc" />
    <path
       style="fill:none;fill-rule:evenodd;stroke:#000000;stroke-width:0.26458332px;stroke-linecap:butt;stroke-linejoin:miter;stroke-opacity:1"
       d="m 34.519565,258.39939 c 0.03001,0.4212 0.316439,0.76157 0.405435,1.16205 0.03826,0.17218 -0.02495,0.35455 0,0.52916 0.01971,0.13805 0.114995,0.25851 0.132291,0.39688 0.02735,0.21878 0,0.44097 0,0.66146 0,0.26458 0,0.52916 0,0.79375 0,0.35277 0.04376,0.70828 0,1.05833 -0.101695,0.81356 -0.3264,1.10861 -0.529166,1.85208 -0.118325,0.43386 -0.17639,0.88195 -0.264584,1.32292 -0.0441,0.22049 -0.08819,0.44097 -0.132291,0.66146 -0.0441,0.22048 -0.109919,0.43772 -0.132292,0.66146 -0.02193,0.21939 0.02193,0.44206 0,0.66146 -0.02238,0.22373 -0.104402,0.43834 -0.132292,0.66145 -0.0164,0.13127 0,0.26459 0,0.39688 0,0.35278 0,0.70555 0,1.05833 0,0.92604 0,1.85208 0,2.77813 0,0.66145 0,1.32291 0,1.98437 0,0.12707 -0.0226,0.99056 0,1.05833 0.05028,0.15084 0.185701,0.25883 0.264584,0.39688 0.09784,0.17123 0.202221,0.34208 0.264583,0.52917 0.02789,0.0837 -0.02789,0.18091 0,0.26458 0.01971,0.0592 0.08819,0.0882 0.132292,0.13229 0,0.13229 -0.03209,0.26854 0,0.39688 0.05759,0.23038 0.189489,0.43617 0.264583,0.66145 0.153683,0.46105 0.132292,0.4219 0.132292,0.79375 0,0.0441 0.01971,0.0929 0,0.1323 -0.02789,0.0558 -0.0977,0.0804 -0.132292,0.13229 -0.05469,0.082 -0.0776,0.18254 -0.132292,0.26458 -0.06919,0.10378 -0.195397,0.16081 -0.264583,0.26458 -0.0547,0.082 -0.08819,0.17639 -0.132292,0.26459 -0.0441,0.0882 -0.09567,0.17303 -0.132291,0.26458 -0.10358,0.25895 -0.17639,0.52917 -0.264584,0.79375 -0.0441,0.13229 -0.109365,0.25932 -0.132291,0.39688 -0.02175,0.13049 0.02175,0.26638 0,0.39687 -0.04585,0.2751 -0.187966,0.52559 -0.264584,0.79375 -0.04995,0.17482 -0.08234,0.35435 -0.132291,0.52917 -0.0441,0.13229 -0.08819,0.26458 -0.132292,0.39687 0,0.0882 0.02138,0.17903 0,0.26459 -0.02392,0.0957 -0.108376,0.16892 -0.132292,0.26458 -0.0048,0.0193 -0.01355,0.46141 0,0.52917 0.03566,0.17828 0.08234,0.35434 0.132292,0.52916 0.03831,0.13409 0.104944,0.26014 0.132292,0.39688 0.02596,0.12972 0,0.26458 0,0.39687 0,0.26459 0,0.52917 0,0.79375 0,0.0441 0,0.0882 0,0.13229 0,0.0441 -0.01971,0.0929 0,0.1323 0.0711,0.1422 0.193479,0.25466 0.264583,0.39687 0.106201,0.2124 0.17639,0.44097 0.264583,0.66146 0.08819,0.22049 0.206989,0.43108 0.264584,0.66146 0.03209,0.12834 0,0.26458 0,0.39687"
       id="path890"
       inkscape:connector-curvature="0" />
    <path
       style="fill:none;fill-rule:evenodd;stroke:#000000;stroke-width:0.765;stroke-linecap:butt;stroke-linejoin:miter;stroke-opacity:1;marker-end:url(#Arrow2Lend);stroke-miterlimit:4;stroke-dasharray:none"
       d="M 15.742708,196.5906 15.875,220.93227"
       id="path892"
       inkscape:connector-curvature="0" />
  </g>
</svg>
