<?xml version="1.0" encoding="UTF-8" standalone="no"?>
<svg
   xmlns:dc="http://purl.org/dc/elements/1.1/"
   xmlns:cc="http://creativecommons.org/ns#"
   xmlns:rdf="http://www.w3.org/1999/02/22-rdf-syntax-ns#"
   xmlns:svg="http://www.w3.org/2000/svg"
   xmlns="http://www.w3.org/2000/svg"
   xmlns:sodipodi="http://sodipodi.sourceforge.net/DTD/sodipodi-0.dtd"
   xmlns:inkscape="http://www.inkscape.org/namespaces/inkscape"
   id="svg2"
   sodipodi:docname="preheat.svg"
   viewBox="0 0 281.24999 281.24999"
   version="1.1"
   inkscape:version="0.92.1 r15371"
   width="300"
   height="300"
   inkscape:export-filename="/home/paulliu/tmp/ucrpf1host/images/preheat.svg.png"
   inkscape:export-xdpi="120"
   inkscape:export-ydpi="120">
  <defs
     id="defs6" />
  <sodipodi:namedview
     id="namedview8"
     bordercolor="#666666"
     inkscape:pageshadow="2"
     guidetolerance="10"
     pagecolor="#ffffff"
     gridtolerance="10"
     inkscape:window-maximized="1"
     inkscape:zoom="1"
     objecttolerance="10"
     borderopacity="1"
     inkscape:current-layer="svg2"
     inkscape:cx="-32.166656"
     inkscape:cy="-10.18109"
     inkscape:window-y="0"
     inkscape:window-x="0"
     inkscape:window-width="1280"
     showgrid="false"
     inkscape:pageopacity="0"
     inkscape:window-height="965"
     scale-x="0.9375" />
  <path
     id="path4"
     inkscape:connector-curvature="0"
     d="m 20.625,179.73751 c 0,-25.20626 7.432692,-45.64376 19.325,-61.31251 0,30.99687 8.175961,41.89687 26.014423,41.89687 11.892307,0 24.156249,-8.17499 24.156249,-22.14062 0,-12.60312 -9.290865,-35.425 -9.290865,-59.949997 0,-24.525 8.919231,-50.753125 45.339423,-70.1687489 -8.17596,19.7562499 -11.52068,36.4468739 -11.52068,50.0718739 0,36.10625 23.78462,52.456252 44.96779,52.456252 17.0952,0 34.93366,-10.21875 34.93366,-39.853127 11.52067,11.58125 16.72355,24.865624 16.72355,38.150007 0,21.11874 -12.63557,39.85312 -12.63557,56.88437 0,13.96563 12.26394,22.14062 24.15625,22.14062 21.18317,0 27.50096,-17.37187 27.50096,-45.98437 6.31779,9.87812 11.89231,29.29374 11.89231,45.98437 0,49.73125 -51.28558,85.8375 -108.51731,85.8375 48.3125,-16.69062 57.23173,-38.83125 57.23173,-63.69687 -11.89231,19.41562 -24.15625,22.14062 -30.1024,22.14062 -36.42019,0 2.97307,-63.69687 -60.57644,-107.97812 10.40576,20.4375 14.49375,38.14999 14.49375,52.45625 0,30.65624 -18.2101,47.34688 -35.676928,47.34688 -14.865384,0 -29.730768,-10.90001 -35.676921,-34.06251 0,32.35937 10.405768,63.01562 56.860099,83.79375 C 47.754327,262.85 20.625,221.29375 20.625,179.73751 Z"
     style="stroke-width:1.7789607" />
  <metadata
     id="metadata6">
    <rdf:RDF>
      <cc:Work>
        <dc:format>image/svg+xml</dc:format>
        <dc:type
           rdf:resource="http://purl.org/dc/dcmitype/StillImage" />
        <cc:license
           rdf:resource="http://creativecommons.org/publicdomain/zero/1.0/" />
        <dc:publisher>
          <cc:Agent
             rdf:about="http://openclipart.org/">
            <dc:title>Openclipart</dc:title>
          </cc:Agent>
        </dc:publisher>
        <dc:title></dc:title>
      </cc:Work>
      <cc:License
         rdf:about="http://creativecommons.org/publicdomain/zero/1.0/">
        <cc:permits
           rdf:resource="http://creativecommons.org/ns#Reproduction" />
        <cc:permits
           rdf:resource="http://creativecommons.org/ns#Distribution" />
        <cc:permits
           rdf:resource="http://creativecommons.org/ns#DerivativeWorks" />
      </cc:License>
    </rdf:RDF>
  </metadata>
</svg>
