<?xml version="1.0" encoding="UTF-8" standalone="no"?>
<!-- Created with Inkscape (http://www.inkscape.org/) -->

<svg
   xmlns:dc="http://purl.org/dc/elements/1.1/"
   xmlns:cc="http://creativecommons.org/ns#"
   xmlns:rdf="http://www.w3.org/1999/02/22-rdf-syntax-ns#"
   xmlns:svg="http://www.w3.org/2000/svg"
   xmlns="http://www.w3.org/2000/svg"
   xmlns:sodipodi="http://sodipodi.sourceforge.net/DTD/sodipodi-0.dtd"
   xmlns:inkscape="http://www.inkscape.org/namespaces/inkscape"
   width="300"
   height="600"
   viewBox="0 0 79.374998 158.75"
   version="1.1"
   id="svg8"
   inkscape:version="0.92.1 r15371"
   sodipodi:docname="unloadfilament.svg">
  <defs
     id="defs2">
    <marker
       inkscape:stockid="Arrow2Lend"
       orient="auto"
       refY="0.0"
       refX="0.0"
       id="Arrow2Lend"
       style="overflow:visible;"
       inkscape:isstock="true">
      <path
         id="path915"
         style="fill-rule:evenodd;stroke-width:0.625;stroke-linejoin:round;stroke:#000000;stroke-opacity:1;fill:#000000;fill-opacity:1"
         d="M 8.7185878,4.0337352 L -2.2072895,0.016013256 L 8.7185884,-4.0017078 C 6.9730900,-1.6296469 6.9831476,1.6157441 8.7185878,4.0337352 z "
         transform="scale(1.1) rotate(180) translate(1,0)" />
    </marker>
  </defs>
  <sodipodi:namedview
     id="base"
     pagecolor="#ffffff"
     bordercolor="#666666"
     borderopacity="1.0"
     inkscape:pageopacity="0.0"
     inkscape:pageshadow="2"
     inkscape:zoom="2"
     inkscape:cx="140.54432"
     inkscape:cy="240"
     inkscape:document-units="mm"
     inkscape:current-layer="layer1"
     showgrid="false"
     units="px"
     inkscape:window-width="1280"
     inkscape:window-height="965"
     inkscape:window-x="0"
     inkscape:window-y="0"
     inkscape:window-maximized="1" />
  <metadata
     id="metadata5">
    <rdf:RDF>
      <cc:Work
         rdf:about="">
        <dc:format>image/svg+xml</dc:format>
        <dc:type
           rdf:resource="http://purl.org/dc/dcmitype/StillImage" />
        <dc:title></dc:title>
      </cc:Work>
    </rdf:RDF>
  </metadata>
  <g
     inkscape:label="圖層 1"
     inkscape:groupmode="layer"
     id="layer1"
     transform="translate(0,-138.24998)">
    <g
       id="g74"
       transform="matrix(0.81217685,0,0,0.81217685,1.5495391,28.172879)">
      <rect
         y="250.13097"
         x="9.373807"
         height="14.022917"
         width="61.383335"
         id="rect10"
         style="opacity:1;fill:#000000;fill-opacity:1;fill-rule:evenodd;stroke:#000000;stroke-width:5.06500006;stroke-linecap:round;stroke-linejoin:miter;stroke-miterlimit:4;stroke-dasharray:none;stroke-dashoffset:0;stroke-opacity:1" />
      <path
         inkscape:connector-curvature="0"
         id="path821"
         d="m 31.069641,261.77262 17.727083,-0.52917 -8.202083,22.225 z"
         style="fill:#000000;fill-opacity:1;fill-rule:evenodd;stroke:#000000;stroke-width:0.26458332px;stroke-linecap:butt;stroke-linejoin:miter;stroke-opacity:1" />
    </g>
    <path
       inkscape:connector-curvature="0"
       style="opacity:1;fill:#000000;fill-opacity:1;fill-rule:evenodd;stroke:none;stroke-width:3.56277561;stroke-linecap:round;stroke-linejoin:miter;stroke-miterlimit:4;stroke-dasharray:none;stroke-dashoffset:0;stroke-opacity:1"
       d="m 49.892857,146.13079 a 26.893006,26.893006 0 0 0 -26.893006,26.893 26.893006,26.893006 0 0 0 26.893006,26.89301 26.893006,26.893006 0 0 0 26.893007,-26.89301 26.893006,26.893006 0 0 0 -26.893007,-26.893 z m -0.929463,2.70297 c 3.545503,-0.0501 7.338859,0.82905 11.444724,2.88035 l -3.349994,10.98054 c -4.159211,-3.17179 -8.870831,-3.76568 -14.516642,0 L 39.005377,151.528 c 3.114858,-1.66498 6.412514,-2.64419 9.958017,-2.69424 z m 0.650297,15.34977 a 8.9333162,8.9333162 0 0 1 8.933315,8.93332 8.9333162,8.9333162 0 0 1 -8.933315,8.93332 8.9333162,8.9333162 0 0 1 -8.933317,-8.93332 8.9333162,8.9333162 0 0 1 8.933317,-8.93332 z m 12.034315,5.93011 11.628654,1.40564 c 0.451273,7.04942 -1.897725,13.62857 -9.032554,19.40423 l -8.607624,-7.59637 c 4.609402,-2.47239 7.101206,-6.51513 6.011524,-13.2135 z m -24.192582,3.11153 c 0.02635,5.23055 2.431675,9.32498 8.860617,11.49852 l -6.686538,9.61706 c -6.440211,-2.90203 -11.153865,-8.05786 -12.916524,-17.06657 z"
       id="path10" />
    <path
       style="fill:none;fill-rule:evenodd;stroke:#000000;stroke-width:3.36500001;stroke-linecap:butt;stroke-linejoin:miter;stroke-miterlimit:4;stroke-dasharray:none;stroke-opacity:1"
       d="m 34.086444,217.67952 0.06169,-25.40436"
       id="path76"
       inkscape:connector-curvature="0"
       sodipodi:nodetypes="cc" />
    <path
       style="fill:none;fill-rule:evenodd;stroke:#000000;stroke-width:0.765;stroke-linecap:butt;stroke-linejoin:miter;stroke-opacity:1;marker-end:url(#Arrow2Lend);stroke-miterlimit:4;stroke-dasharray:none"
       d="M 15.875,220.93227 15.742708,196.5906"
       id="path892"
       inkscape:connector-curvature="0" />
  </g>
</svg>
